<svg xmlns="http://www.w3.org/2000/svg" width="385" height="380" viewBox="0 0 385 380">
    <g fill="none" fill-rule="evenodd" stroke="#000" stroke-width="4.5" opacity=".05">
        <path d="M-168.75-730c105.631 0 203.43 55.653 257.29 146.414L349.7-143.501c45.006 75.84 45.006 170.162 0 246.002L88.54 542.586C34.68 633.346-63.12 689-168.75 689"/>
        <path d="M-205.5-730c105.631 0 203.43 55.653 257.29 146.414l261.16 440.085c45.006 75.84 45.006 170.162 0 246.002L51.79 542.586C-2.07 633.346-99.87 689-205.5 689"/>
        <path d="M-241.5-730c105.631 0 203.43 55.653 257.29 146.414l261.16 440.085c45.006 75.84 45.006 170.162 0 246.002L15.79 542.586C-38.07 633.346-135.87 689-241.5 689"/>
        <path d="M-278.25-730c105.631 0 203.43 55.653 257.29 146.414L240.2-143.501c45.006 75.84 45.006 170.162 0 246.002L-20.96 542.586C-74.82 633.346-172.62 689-278.25 689"/>
        <path d="M-314.25-730c105.631 0 203.43 55.653 257.29 146.414L204.2-143.501c45.006 75.84 45.006 170.162 0 246.002L-56.96 542.586C-110.82 633.346-208.62 689-314.25 689"/>
        <path d="M-351-730c105.631 0 203.43 55.653 257.29 146.414l261.16 440.085c45.006 75.84 45.006 170.162 0 246.002L-93.71 542.586C-147.57 633.346-245.37 689-351 689"/>
    </g>
</svg>
